<?xml version="1.0" encoding="utf-8"?>
<!-- Generator: Adobe Illustrator 23.1.0, SVG Export Plug-In . SVG Version: 6.00 Build 0)  -->
<svg version="1.1" id="Layer_1" xmlns="http://www.w3.org/2000/svg" xmlns:xlink="http://www.w3.org/1999/xlink" x="0px" y="0px"
	 viewBox="0 0 301.9 287.1" style="enable-background:new 0 0 301.9 287.1;" xml:space="preserve">
<title>logo-white</title>
<g id="Symbol">
	<path id="Symbol_Path" d="M182.7,281.2c0,0-21.4-206.3-115.2-261.4C-86.3-63.6,132.9,228,152,253.8c59.8,63.6-18,16.5-18,16.5
		l5.8-9.6c0,0,60.7,54.6-13.7-26.3c0,0-143.4-150.6-124.4-215.7c0,0,17.2-59.3,107.2,33.3c0,0,45.9,37.9,83.1,182.9"/>
	<path id="Symbol_Path-2" d="M194.6,226.4c0,0-32.4-43.8,0.5-110.9c0,0,31.6-58.1,86-46.3c0,0,55.4-1.4-46.9,76l9.7,20.7
		c0,0,127-124.3,5.1-99.9c-101.7,21.5-77.1,160.8-65.2,206.5"/>
</g>
</svg>
